<?xml version="1.0" encoding="UTF-8" standalone="no"?>
<!-- Created with Inkscape (http://www.inkscape.org/) -->

<svg
   width="1284"
   height="2778"
   viewBox="0 0 339.725 735.01249"
   version="1.1"
   id="svg1"
   inkscape:version="1.3 (0e150ed6c4, 2023-07-21)"
   sodipodi:docname="splash.svg"
   xml:space="preserve"
   inkscape:export-filename="splash.png"
   inkscape:export-xdpi="96"
   inkscape:export-ydpi="96"
   xmlns:inkscape="http://www.inkscape.org/namespaces/inkscape"
   xmlns:sodipodi="http://sodipodi.sourceforge.net/DTD/sodipodi-0.dtd"
   xmlns:xlink="http://www.w3.org/1999/xlink"
   xmlns="http://www.w3.org/2000/svg"
   xmlns:svg="http://www.w3.org/2000/svg"><sodipodi:namedview
     id="namedview1"
     pagecolor="#ffffff"
     bordercolor="#000000"
     borderopacity="0.25"
     inkscape:showpageshadow="2"
     inkscape:pageopacity="0.0"
     inkscape:pagecheckerboard="0"
     inkscape:deskcolor="#d1d1d1"
     inkscape:document-units="mm"
     inkscape:zoom="0.091423787"
     inkscape:cx="1678.9941"
     inkscape:cy="1022.7098"
     inkscape:window-width="1920"
     inkscape:window-height="1017"
     inkscape:window-x="-8"
     inkscape:window-y="-8"
     inkscape:window-maximized="1"
     inkscape:current-layer="layer1" /><defs
     id="defs1"><style
       id="style1">.a{fill:#ededed;}.b{fill:url(#a);}.c{fill:#f2e2d6;opacity:0.3;mix-blend-mode:multiply;isolation:isolate;}.d{fill:url(#b);}.e{fill:#be1622;}.f{fill:#1d1d1b;}</style><linearGradient
       id="a"
       x1="0.51800001"
       y1="1.0140001"
       x2="0.47999999"
       y2="-0.001"
       gradientUnits="objectBoundingBox"><stop
         offset="0"
         stop-color="#f9db64"
         id="stop1" /><stop
         offset="1"
         stop-color="#fbbc33"
         id="stop2" /></linearGradient><linearGradient
       id="b"
       y1="0.5"
       x2="1"
       y2="0.5"
       gradientUnits="objectBoundingBox"><stop
         offset="0"
         stop-color="#f9db64"
         id="stop3" /><stop
         offset="1"
         stop-color="#f9b233"
         id="stop4" /></linearGradient><linearGradient
       id="a-4"
       x1="1527.0487"
       y1="770.17059"
       x2="1526.5142"
       y2="755.8902"
       gradientUnits="userSpaceOnUse"
       gradientTransform="matrix(5.4398236,0,0,2.2932783,-8141.6902,-1591.0695)"><stop
         offset="0"
         stop-color="#f9db64"
         id="stop1-2" /><stop
         offset="1"
         stop-color="#fbbc33"
         id="stop2-0" /></linearGradient><linearGradient
       inkscape:collect="always"
       xlink:href="#b-8"
       id="linearGradient18"
       gradientUnits="userSpaceOnUse"
       y1="713.88867"
       x2="1457.1738"
       y2="713.88867"
       gradientTransform="matrix(5.71817,0,0,2.1816471,-8122.7693,-1421.7206)"
       x1="1442.0233" /><linearGradient
       id="b-8"
       y1="0.5"
       x2="1"
       y2="0.5"
       gradientUnits="objectBoundingBox"><stop
         offset="0"
         stop-color="#f9db64"
         id="stop3-9" /><stop
         offset="1"
         stop-color="#f9b233"
         id="stop4-7" /></linearGradient><linearGradient
       inkscape:collect="always"
       xlink:href="#b-8"
       id="linearGradient19"
       gradientUnits="userSpaceOnUse"
       y1="730.46918"
       x2="1804.2762"
       y2="730.46918"
       gradientTransform="matrix(4.650876,0,0,2.6822966,-8189.3794,-1771.8973)"
       x1="1789.2201" /><linearGradient
       id="linearGradient6"
       y1="0.5"
       x2="1"
       y2="0.5"
       gradientUnits="objectBoundingBox"><stop
         offset="0"
         stop-color="#f9db64"
         id="stop5" /><stop
         offset="1"
         stop-color="#f9b233"
         id="stop6" /></linearGradient></defs><g
     inkscape:label="Camada 1"
     inkscape:groupmode="layer"
     id="layer1"><rect
       style="fill:#be1622;fill-opacity:1;stroke-width:0.48799"
       id="rect1"
       width="339.72501"
       height="735.01251"
       x="-3.0517579e-06"
       y="-6.1035157e-06" /><g
       id="g1"
       transform="matrix(0.61144263,0,0,0.61144263,68.20462,272.34282)"><path
         class="a"
         d="m 223.99468,124.88588 a 8.8617896,8.8617896 0 0 0 -4.2667,-6.1563 l -0.0934,-0.0534 a 108.9375,108.9375 0 0 0 -106.66647,-0.39514 8.8547257,8.8547257 0 0 0 -4.56332,7.77049 v 0.16553 c 0,0.35376 0,0.90375 0,1.24682 a 108.7397,108.7397 0 0 0 53.33323,93.61927 8.8582577,8.8582577 0 0 0 9.04188,0 108.74677,108.74677 0 0 0 53.33323,-93.61927 c 0,-0.27232 0,-0.73821 0,-0.98117 v -0.0534 a 9.1584777,9.1584777 0 0 0 -0.12014,-1.54705 z"
         id="path4"
         style="fill:#ededed;stroke-width:3.532" /><path
         class="b"
         d="m 179.29364,145.6152 q -2.20037,-1.44814 -4.45026,-2.74782 -4.36909,-0.43519 -8.85472,-0.43786 a 87.968009,87.968009 0 0 0 -40.44849,9.78356 89.239529,89.239529 0 0 1 10.40884,3.94886 88.130481,88.130481 0 0 1 26.46872,18.42643 c 1.37043,0.0668 2.74087,0.1068 4.12546,0.1068 a 88.045713,88.045713 0 0 0 35.53182,-7.43837 88.144609,88.144609 0 0 0 -22.78137,-21.64067 z"
         id="path5"
         style="fill:url(#a-4);stroke-width:3.532" /><path
         class="c"
         d="m 179.29364,145.6152 q -2.20037,-1.44814 -4.45026,-2.74782 -4.36909,-0.43519 -8.85472,-0.43786 a 87.968009,87.968009 0 0 0 -40.44849,9.78356 89.239529,89.239529 0 0 1 10.40884,3.94886 88.130481,88.130481 0 0 1 26.46872,18.42643 c 1.37043,0.0668 2.74087,0.1068 4.12546,0.1068 a 88.045713,88.045713 0 0 0 35.53182,-7.43837 88.144609,88.144609 0 0 0 -22.78137,-21.64067 z"
         id="path6"
         style="opacity:0.3;isolation:isolate;mix-blend-mode:multiply;fill:#f2e2d6;stroke-width:3.532" /><path
         class="d"
         d="m 174.84338,142.88153 v 0 c 0.85836,0.0801 1.70951,0.18689 2.56066,0.29635 l 0.7489,0.1068 q 0.94646,0.13349 1.88959,0.283 l 0.80496,0.13349 q 1.14804,0.1949 2.28874,0.4165 l 0.39514,0.0801 q 1.14804,0.22961 2.28527,0.49392 l 0.91843,0.21893 q 0.78761,0.1909 1.57174,0.39514 l 0.97851,0.25764 q 0.88639,0.24029 1.76597,0.50193 0.64611,0.1909 1.28955,0.39247 c 0.51928,0.16287 1.03857,0.3284 1.55412,0.49793 0.38446,0.1335 0.76625,0.26165 1.14804,0.39247 l 1.18008,0.4205 c 0.40315,0.14418 0.80229,0.28968 1.19743,0.44187 0.39514,0.15218 0.75557,0.29635 1.13335,0.44453 q 1.09865,0.43785 2.18635,0.90107 l 0.90375,0.38847 c 0.26164,0.12014 1.99545,0.94646 3.44358,1.64944 a 1.7660003,1.7660003 0 0 0 2.51835,-1.22547 88.709729,88.709729 0 0 0 1.99211,-18.71958 c 0,-0.31771 0,-0.94646 0,-0.94646 0,0 0,0 0,0 a 88.476617,88.476617 0 0 0 -86.63291,-0.31505 v 0 c 0,0 0,0.84368 0,1.26418 a 88.603769,88.603769 0 0 0 2.3982,20.53856 l 0.17354,0.0801 a 87.968009,87.968009 0 0 1 40.4768,-9.79771 q 4.45732,-0.0134 8.83002,0.4205 z"
         id="path7"
         style="fill:url(#linearGradient18);stroke-width:3.532" /><path
         class="d"
         d="m 162.41773,174.58824 v 0 0 c -0.45522,-0.0267 -0.91176,-0.0534 -1.36684,-0.0801 l -0.562,-0.0267 q -1.29222,-0.0934 -2.57482,-0.21225 l -0.74889,-0.0801 c -0.62208,-0.0667 -1.24015,-0.13749 -1.85782,-0.21492 l -0.84768,-0.10679 q -1.0279,-0.14151 -2.04859,-0.30437 l -0.53664,-0.0801 c -0.7836,-0.1335 -1.56814,-0.275 -2.34881,-0.42718 l -0.99986,-0.20425 q -0.74222,-0.15218 -1.47643,-0.31771 c -0.35376,-0.0801 -0.70618,-0.15886 -1.05993,-0.24296 -0.57936,-0.13749 -1.15205,-0.283 -1.72727,-0.43118 -0.57535,-0.14818 -1.05993,-0.283 -1.58229,-0.42718 -0.39914,-0.10679 -0.80229,-0.2256 -1.20144,-0.35375 -0.39914,-0.1335 -0.86236,-0.25764 -1.29221,-0.39247 -0.3324,-0.1068 -0.66479,-0.21893 -0.99986,-0.32172 -1.59644,-0.48057 -3.24241,-1.08129 -4.67986,-1.64597 a 1.7660003,1.7660003 0 0 0 -2.23227,2.47243 88.737985,88.737985 0 0 0 33.98129,36.44677 88.709729,88.709729 0 0 0 35.82871,-40.36372 l -0.04,-0.0267 a 88.045713,88.045713 0 0 1 -35.52834,7.43836 c -1.37752,0.0267 -2.73381,-0.0134 -4.1184,-0.0934 z"
         id="path8"
         style="fill:url(#linearGradient19);stroke-width:3.532" /></g></g></svg>
